<?xml version="1.0" encoding="utf-8"?>
<!-- Generator: Adobe Illustrator 27.2.0, SVG Export Plug-In . SVG Version: 6.00 Build 0)  -->
<svg version="1.1" id="Layer_1" xmlns="http://www.w3.org/2000/svg" xmlns:xlink="http://www.w3.org/1999/xlink" x="0px" y="0px"
	 viewBox="0 0 479 282.5" style="enable-background:new 0 0 479 282.5;" xml:space="preserve">
<style type="text/css">
	.st0{fill:#016FD0;}
</style>
<g>
	<path id="path3046" class="st0" d="M63.5,82.1L43.8,128h12.9l3.6-9.2h21.2l3.6,9.2h13.1L78.5,82.1H63.5L63.5,82.1z M70.9,92.8
		l6.5,16.1h-13L70.9,92.8z"/>
	<path id="path3048" class="st0" d="M99.6,128V82.1l18.3,0.1l10.6,29.6l10.4-29.7H157V128h-11.5V94.2L133.3,128h-10.1L111,94.2V128
		H99.6z"/>
	<path id="path3050" class="st0" d="M164.8,128V82.1h37.4v10.3h-25.9v7.9h25.2v9.7h-25.2v8.2h25.9v10L164.8,128z"/>
	<path id="path3052" class="st0" d="M208.9,82.1V128h11.5v-16.3h4.8L239,128h14l-15.1-16.9c6.2-0.5,12.6-5.8,12.6-14.1
		c0-9.7-7.6-14.9-16-14.9H208.9L208.9,82.1z M220.4,92.4h13.1c3.1,0,5.4,2.5,5.4,4.8c0,3-3,4.8-5.3,4.8h-13.3L220.4,92.4L220.4,92.4
		z"/>
	<path id="path3054" class="st0" d="M266.9,128h-11.7V82.1h11.7V128z"/>
	<path id="path3056" class="st0" d="M294.7,128h-2.5c-12.2,0-19.7-9.6-19.7-22.8c0-13.4,7.3-23.1,22.8-23.1H308V93h-13.1
		c-6.3,0-10.7,4.9-10.7,12.4c0,8.9,5.1,12.6,12.4,12.6h3L294.7,128z"/>
	<path id="path3058" class="st0" d="M319.7,82.1L299.9,128h12.9l3.6-9.2h21.2l3.6,9.2h13.1l-19.7-45.9H319.7L319.7,82.1z M327,92.8
		l6.5,16.1h-12.9L327,92.8L327,92.8z"/>
	<path id="path3060" class="st0" d="M355.7,128V82.1h14.6l18.6,28.8V82.1h11.5V128h-14.1l-19.1-29.6V128H355.7z"/>
	<path id="path3062" class="st0" d="M127.4,200.4v-45.9h37.4v10.3H139v7.9h25.2v9.7H139v8.2h25.9v10L127.4,200.4z"/>
	<path id="path3064" class="st0" d="M310.9,200.4v-45.9h37.4v10.3h-25.9v7.9h25.1v9.7h-25.1v8.2h25.9v10L310.9,200.4z"/>
	<path id="path3066" class="st0" d="M166.3,200.4l18.2-22.7l-18.7-23.2h14.5l11.1,14.4l11.2-14.4h13.9l-18.4,23l18.3,23h-14.5
		l-10.8-14.1l-10.5,14.1L166.3,200.4z"/>
	<path id="path3068" class="st0" d="M217.7,154.5v45.9h11.8v-14.5h12.1c10.2,0,18-5.4,18-16c0-8.7-6.1-15.4-16.5-15.4H217.7
		L217.7,154.5z M229.5,164.9h12.7c3.3,0,5.7,2,5.7,5.3c0,3.1-2.3,5.3-5.7,5.3h-12.7V164.9L229.5,164.9z"/>
	<path id="path3072" class="st0" d="M264.5,154.5v45.9H276v-16.3h4.8l13.8,16.3h14l-15.1-16.9c6.2-0.5,12.6-5.8,12.6-14.1
		c0-9.7-7.6-14.9-16-14.9H264.5L264.5,154.5z M276,164.7h13.1c3.1,0,5.4,2.5,5.4,4.8c0,3-3,4.8-5.3,4.8H276V164.7z"/>
	<path id="path3074" class="st0" d="M353.6,200.4v-10h23c3.4,0,4.9-1.8,4.9-3.9c0-1.9-1.5-3.9-4.9-3.9h-10.4c-9,0-14-5.5-14-13.7
		c0-7.4,4.6-14.5,18-14.5h22.3l-4.8,10.3h-19.3c-3.7,0-4.8,1.9-4.8,3.8c0,1.9,1.4,4,4.2,4h10.9c10.1,0,14.4,5.7,14.4,13.2
		c0,8-4.9,14.6-15,14.6L353.6,200.4L353.6,200.4z"/>
	<path id="path3076" class="st0" d="M395.8,200.4v-10h23c3.4,0,4.9-1.8,4.9-3.9c0-1.9-1.5-3.9-4.9-3.9h-10.4c-9,0-14-5.5-14-13.7
		c0-7.4,4.6-14.5,18-14.5h22.3l-4.8,10.3h-19.3c-3.7,0-4.8,1.9-4.8,3.8c0,1.9,1.4,4,4.2,4h10.9c10.1,0,14.4,5.7,14.4,13.2
		c0,8-4.9,14.6-15,14.6L395.8,200.4L395.8,200.4z"/>
</g>
</svg>
