<?xml version="1.0" encoding="utf-8"?>
<!-- Generator: Adobe Illustrator 27.2.0, SVG Export Plug-In . SVG Version: 6.00 Build 0)  -->
<svg version="1.1" id="Layer_1" xmlns="http://www.w3.org/2000/svg" xmlns:xlink="http://www.w3.org/1999/xlink" x="0px" y="0px"
	 viewBox="0 0 479 282.5" style="enable-background:new 0 0 479 282.5;" xml:space="preserve">
<style type="text/css">
	.st0{fill:#DC291E;}
</style>
<g id="Page-1">
	<g id="Login-Screen" transform="translate(-137.000000, -94.000000)">
	</g>
</g>
<g>
	<path class="st0" d="M84.7,116.6c-2.7-2.9-5.9-4.9-9.1-6.4s-6.9-2.2-10.5-2.2c-8.1,0-15,3.2-20.6,9.3c-5.6,6.4-8.6,14.2-8.6,24
		c0,9.3,2.9,17.2,8.8,23.5s12.7,9.6,20.8,9.6c3.7,0,6.9-0.7,10-2c2.9-1.2,6.1-3.4,9.1-6.4v6.6h15.7v-63H84.7
		C84.7,109.8,84.7,116.6,84.7,116.6z M80.6,154.6c-3.2,3.4-7.4,5.1-12.3,5.1c-4.7,0-8.8-1.7-12-5.4c-3.2-3.4-4.9-8.1-4.9-13.5
		s1.7-9.8,4.9-13.2c3.2-3.4,7.1-5.1,12-5.1s9.1,1.7,12.3,5.1c3.2,3.4,4.2,7.4,4.2,12.7C85,146,84,151.2,80.6,154.6z M190.4,116.6
		c-2.7-2.9-5.9-4.9-9.1-6.4c-3.2-1.5-6.9-2.2-10.5-2.2c-8.1,0-15,3.2-20.6,9.3c-5.6,6.1-8.6,14.2-8.6,23.8c0,9.3,2.9,17.2,8.8,23.5
		c5.9,6.4,12.7,9.6,20.8,9.6c3.7,0,6.9-0.7,10-2c2.9-1.2,6.1-3.4,9.1-6.4v6.6H206v-62.7h-15.7L190.4,116.6L190.4,116.6z
		 M186.2,154.6c-3.2,3.4-7.4,5.1-12.3,5.1c-4.7,0-8.8-1.7-12-5.4c-3.2-3.4-4.9-8.1-4.9-13.5s1.7-9.8,4.9-13.2
		c3.2-3.4,7.1-5.1,12-5.1s9.1,1.7,12.3,5.1c3.2,3.4,4.2,7.4,4.2,12.7C190.6,146,189.6,151.2,186.2,154.6z M300.4,111.2
		c-3.4-2.2-7.4-3.2-11.8-3.2s-8.3,1-11.8,2.9c-3.7,2-6.6,4.7-9.1,8.6c-2-3.7-4.4-6.6-7.6-8.6s-6.6-2.9-10.5-2.9s-7.4,0.7-10.8,2.2
		c-3.2,1.5-6.1,3.7-8.8,6.6v-7.4h-15.7v63H230v-27.9c0-6.1,0.5-10.5,1.5-13.2s2.7-4.9,4.9-6.6c2.2-1.5,4.4-2.5,7.1-2.5
		c2.5,0,4.4,0.7,5.9,2c1.7,1.2,2.9,3.2,3.7,5.6c0.7,2.5,1.2,6.6,1.2,12.3v30.4H270v-28.4c0-5.9,0.5-10.3,1.5-13s2.7-4.9,4.7-6.4
		c2.2-1.5,4.7-2.2,7.4-2.2c3.4,0,6.1,1.2,7.8,3.7c1.7,2.5,2.7,7.4,2.7,14.5v31.9h15.7v-36.8c0-7.6-0.7-13-2.2-16.4
		C306.3,116.1,303.8,113.4,300.4,111.2z M364.6,154.1c-4.2,4.2-9.3,6.4-15,6.4c-4.9,0-8.8-1.5-12-3.9c-3.2-2.7-5.1-6.4-5.9-10.8H382
		v-2.9c0-10.3-3.2-18.6-9.3-25c-6.1-6.4-14.2-9.6-24-9.6c-9.3,0-16.9,3.2-23,9.6s-9.3,14.2-9.3,24c0,9.3,3.2,17.2,9.3,23.5
		c6.1,6.1,14.2,9.3,23.8,9.3c6.4,0,11.8-1.2,16.4-3.4s8.6-5.6,11.8-10.5L364.6,154.1z M338.4,125.2c3.2-2.5,7.1-3.7,11.5-3.7
		c3.9,0,7.6,1,10.5,3.2s5.1,4.9,6.1,8.3h-34.1C334.2,129.4,336.2,126.7,338.4,125.2z M419.3,139.4l21.3-29.7h-17.9l-12.3,17.2
		l-12.3-17.2H380l21.3,29.9l-23.8,33.1h17.9l14.7-20.6l14.7,20.6h18.1L419.3,139.4z M138.2,107.8c-2.9,0-5.4,0.5-7.6,1.7
		c-2.2,1-4.4,2.9-7.1,5.9V110h-15v63h15.7v-32.8c0-12,3.2-17.9,11.3-17.9c1.5,0,2.7,0.2,4.2,0.7c2.5-4.4,5.6-8.3,8.8-12
		C145,108.8,141.6,107.8,138.2,107.8z"/>
</g>
</svg>
