<?xml version="1.0" encoding="utf-8"?>
<!-- Generator: Adobe Illustrator 27.2.0, SVG Export Plug-In . SVG Version: 6.00 Build 0)  -->
<svg version="1.1" id="Layer_1" xmlns="http://www.w3.org/2000/svg" xmlns:xlink="http://www.w3.org/1999/xlink" x="0px" y="0px"
	 viewBox="0 0 479 282.5" style="enable-background:new 0 0 479 282.5;" xml:space="preserve">
<style type="text/css">
	.st0{fill:#333333;}
	.st1{fill:#00A081;}
</style>
<g id="Page-1">
	<g id="Login-Screen" transform="translate(-137.000000, -94.000000)">
	</g>
</g>
<g>
	<path class="st0" d="M129.5,230.7H115c-3.7,0.4-7.1-2.2-7.5-6c0-0.1,0-0.2,0-0.3v-65.6c0.3-3.7,3.6-6.5,7.3-6.2c0.1,0,0.1,0,0.2,0
		h14.8c3.7-0.3,7,2.4,7.3,6.1v65.6c-0.2,3.7-3.4,6.6-7.2,6.3C129.7,230.8,129.6,230.8,129.5,230.7z"/>
	<path class="st0" d="M337.3,179.6l-43.4,19.5c-3.3,3.5-7.2,6.3-11.6,8.3c-8.9,4-19,4.3-28.1,0.9l-31.4-11.6
		c-4.6-1.7-6.9-6.9-5.2-11.5c1.7-4.6,6.9-6.9,11.5-5.2l31.4,11.9c9.7,3.6,20.6-1.3,24.4-10.9c1-2.6-0.2-5.6-2.8-6.6c0,0-0.1,0-0.1,0
		c-16.1-6.2-67.7-25.8-67.7-25.8c-13.3-5-28-4.6-41,1.2l-21.9,9.8v54.5l23.1-10.5l79.3,29.4c9.9,3.7,20.9,3.3,30.6-1.1l63.6-28.5
		c4.5-2.1,7.5-6.6,7.6-11.6c-0.1-7.1-5.9-12.8-13-12.7c-1.8,0-3.5,0.4-5.1,1.1L337.3,179.6z"/>
	<path class="st1" d="M115.3,76.8c-1.1,0.1-1.9,1.1-1.9,2.2v9.6h-4.3V79c-0.1-3.1,2-5.8,5-6.6v-3.9c0-4.3,3.5-7.9,7.9-7.9
		s7.9,3.5,7.9,7.9v2.2c0.6,4-2.1,7.6-6.1,8.2c-0.5,0.1-1.1,0.1-1.6,0.1C119.7,79.3,117.2,78.5,115.3,76.8z M125,71v-2.7
		c0-1.8-1.4-3.2-3.2-3.2c-1.8,0-3.2,1.4-3.2,3.2c0,0,0,0,0,0v4.9c0.9,0.8,2.1,1.2,3.2,1c1.7,0.1,3.1-1.1,3.2-2.8c0-0.1,0-0.2,0-0.2
		V71z"/>
	<path class="st1" d="M157.4,73.6v4.5h-2c-1.6,0-3-0.7-4.1-1.9c-1.3,1.3-3,2-4.8,1.9h-12.2v-4.5h4.4V56.9h4.5v16.7h3.4
		c2,0,2.5-1.2,2.5-2.7V54.8h4.5V71c0,1.4,0.5,2.7,2.5,2.7H157.4z"/>
	<path class="st1" d="M174.7,73.6v4.5h-5.3c-1.6-0.1-3.1-0.7-4.1-1.9c-1.2,1.3-3,2-4.8,1.9h-3.4l-1.7-0.7v-3.1l1.9-0.8h3.5
		c2,0,2.5-1.2,2.5-2.7v-8.6h4.5v8.7c0,1.4,0.5,2.7,2.5,2.7L174.7,73.6z M159.3,57.2c0-1.4,1.2-2.6,2.7-2.6c1.4,0,2.6,1.2,2.7,2.6
		c0,1.5-1.2,2.7-2.7,2.7C160.5,59.8,159.3,58.6,159.3,57.2L159.3,57.2z M166.5,57.2c0-1.5,1.2-2.7,2.7-2.7c1.5,0,2.7,1.2,2.7,2.7
		c0,1.5-1.2,2.7-2.7,2.7C167.7,59.8,166.5,58.6,166.5,57.2L166.5,57.2z"/>
	<path class="st1" d="M200.6,61.1v10.2c0,3.7-3.1,6.7-6.8,6.7c-1.7,0.1-3.3-0.5-4.6-1.7c-1.3,1.2-3,1.8-4.7,1.8
		c-1.6,0-3.2-0.7-4.4-1.8c-1.2,1.1-2.8,1.7-4.4,1.7h-1.4l-1.9-0.6v-3.1l1.9-0.7h1.4c1.1,0.1,2.1-0.7,2.2-1.8c0-0.1,0-0.2,0-0.2v-6.8
		h4.5v6.8c-0.1,1.1,0.6,2.1,1.7,2.2c0.2,0,0.3,0,0.5,0c1.2,0.1,2.3-0.7,2.4-2c0-0.1,0-0.2,0-0.2v-6.8h4.5v6.8c0,1.3,0.9,2.1,2.4,2.1
		c1.2,0,2.2-0.9,2.2-2.1c0,0,0-0.1,0-0.1V61.1H200.6z"/>
	<path class="st1" d="M224.1,54.7V74c0,2.4-1.9,4.3-4.2,4.3c0,0-0.1,0-0.1,0h-15v-4.5h4.3V56.9h4.5v16.7h4.6c0.7,0,1.3-0.6,1.3-1.3
		c0,0,0-0.1,0-0.1V54.8L224.1,54.7z"/>
	<path class="st1" d="M228.7,78.2V55h4.5v23.1H228.7z"/>
	<path class="st1" d="M260.9,73.6v4.5h-17.4v-4.5h9.4v-4.9c0.1-1.7-1.3-3.2-3-3.2c-0.1,0-0.2,0-0.4,0h-3.8V61h3.8
		c4.2-0.1,7.7,3.3,7.8,7.5c0,0.1,0,0.2,0,0.2v4.9H260.9z"/>
	<path class="st1" d="M271.9,73.6v4.5h-1.6c-1.6,0-3.1-0.7-4.2-1.9c-1.2,1.4-3,2.1-4.8,1.9h-0.9l-1.9-0.7v-3.1l1.9-0.8h0.9
		c2,0,2.5-1.2,2.5-2.7v-8.6h4.5v8.7c0,1.4,0.5,2.7,2.5,2.7L271.9,73.6z M263,57.2c0-1.4,1.2-2.6,2.7-2.5c0,0,0,0,0,0
		c1.4,0,2.6,1.1,2.7,2.5c0,1.5-1.2,2.7-2.7,2.7C264.2,59.8,263.1,58.7,263,57.2L263,57.2z"/>
	<path class="st1" d="M288.5,73.6v4.5h-16.7l-1.9-0.7v-3.1l1.9-0.8h3.4c-1-1.3-1.5-3-1.5-4.6c0-8.2,7.3-10.4,13.5-8.2V65
		c-4.7-1.7-8.6-0.4-8.6,4.1c0,3.4,2.1,4.4,4.9,4.4h5V73.6z"/>
	<path class="st1" d="M303.4,72.7l-5.8-7.3v-3c2.9-1.1,5.9-1.7,9-1.7c5.1,0,8.5,2.1,8.2,5.8c-0.3,2.7-1.9,5.2-4.2,6.7
		c0.6,0.3,1.3,0.5,2,0.5h4.5v4.5h-5.8c-1.9,0.1-3.7-0.7-4.9-2.2c-1.7,0.9-5.8,1.4-5.8,6.1s6.2,5.8,11.6,3.2v4.1
		c-7.6,3.8-16.3,0-16.3-7.3C296.1,77.6,299.1,73.8,303.4,72.7z M302.4,65.9l4.2,5.4c1.7-1,2.8-2.8,2.9-4.8c0-2-4.8-2.6-7.1-0.8V65.9
		z"/>
	<path class="st1" d="M334.4,68.6v2.6c0,3.9-3.2,7.1-7.1,7.1h-10.5l-1.9-0.8v-3.1l1.9-0.6h3c-0.7-0.9-1.1-2-1.1-3.2v-1.9
		c-0.1-4.2,3.3-7.6,7.5-7.7c0,0,0.1,0,0.1,0h0.4c4.1-0.2,7.5,2.9,7.7,7C334.4,68.2,334.4,68.4,334.4,68.6z M329.9,68.6
		c0.1-1.7-1.2-3.1-2.8-3.2c-0.1,0-0.2,0-0.4,0h-0.4c-1.7-0.1-3.1,1.2-3.1,2.9c0,0.1,0,0.2,0,0.3v1.9c-0.1,1.7,1.2,3.1,2.8,3.2h0.7
		c1.7,0,3-1.3,3.1-2.9c0,0,0-0.1,0-0.1v-2L329.9,68.6z M324.1,55.7c0-1.5,1.2-2.7,2.7-2.7c1.5,0,2.7,1.2,2.7,2.7
		c0,1.5-1.2,2.7-2.7,2.7c0,0,0,0,0,0C325.3,58.3,324.1,57.2,324.1,55.7C324.1,55.7,324.1,55.7,324.1,55.7L324.1,55.7z"/>
	<path class="st1" d="M355.4,73.6v4.5h-17.4v-4.5h9.4v-4.9c0.1-1.7-1.3-3.2-3-3.2c-0.1,0-0.2,0-0.4,0h-3.8V61h3.8
		c4.2-0.1,7.7,3.3,7.8,7.5c0,0.1,0,0.2,0,0.2v4.9H355.4z"/>
	<path class="st1" d="M362.5,54.7V74c0,2.4-1.9,4.3-4.2,4.3c0,0-0.1,0-0.1,0H355l-1.9-0.7v-3.1l1.9-0.8h1.7c0.8,0,1.4-0.6,1.4-1.4
		c0,0,0,0,0-0.1V55L362.5,54.7z"/>
	<path class="st1" d="M367.1,78.2V55h4.5v23.1H367.1z"/>
	<path class="st0" d="M119.8,125.5c-7.8,0-10.9-5-10.9-12s3.1-12,10.9-12c2.8,0,5.5,0.7,8,1.9v4c-2.4-0.9-4.9-1.4-7.4-1.5
		c-4.1,0-6.1,2.6-6.1,7.6s2.1,7.7,6.1,7.7c2.5-0.1,5-0.7,7.4-1.5v4C125.3,124.8,122.6,125.4,119.8,125.5z"/>
	<path class="st0" d="M133.1,111.7l-0.8-3c5.5-2.3,13.5-2.6,13.5,4.9v11.6H141v-2c-1.3,1.5-3.1,2.3-5.1,2.3c-2.5,0-4.5-1.9-4.5-4.4
		c0-0.1,0-0.3,0-0.4c0-3.9,3.6-6.4,9.7-6.2v-0.8C140.9,109.8,136.8,110.3,133.1,111.7z M135.7,119.9c0,1.2,1,1.8,2.1,1.8
		c1.1,0,2.2-0.5,3-1.3v-3.5C137.3,116.6,135.7,118.7,135.7,119.9z"/>
	<path class="st0" d="M148.8,124.2v-3.6c1.8,1,3.8,1.5,5.8,1.6c2,0,2.8-0.9,2.8-1.7s-1.4-1.7-3.2-2.3c-1.7-0.6-5.2-1.9-5.2-5.4
		c0-3.5,2.6-5.8,7.7-5.8c2,0,4,0.6,5.8,1.6v3.5c-1.3-1-3-1.5-4.6-1.6c-2.3,0-3.4,1.1-3.4,2c0,0.9,1.7,1.7,3.6,2.4
		c2,0.7,4.9,2,4.9,5.1s-3.1,5.8-7.3,5.8C153.2,125.8,150.9,125.2,148.8,124.2z"/>
	<path class="st0" d="M166.2,125.1v-23.1h4.8v7.3c1.4-1.1,3.1-1.6,4.8-1.7c2.8-0.4,5.4,1.6,5.8,4.4c0.1,0.5,0.1,0.9,0,1.4v11.9h-4.8
		v-10.5c0-1.7-0.8-2.4-2.1-2.5c-1.3,0-2.6,0.4-3.6,1.2v11.6L166.2,125.1z"/>
	<path class="st0" d="M191.9,113.5c0-6.9,3.2-11.6,10.5-11.6c7.3,0,10.5,5,10.5,11.6s-3.3,12-10.5,12S191.9,120.3,191.9,113.5z
		 M207.6,113.5c0-5-1.7-7.6-5.3-7.6c-3.6,0-5.3,2.6-5.3,7.6s1.4,7.7,5.3,7.7c3.8,0,5.2-3.2,5.2-7.7H207.6z"/>
	<path class="st0" d="M216.4,125.1v-17.4h4.8v1.3c1.5-1.1,3.4-1.7,5.3-1.6c3.5,0,5.1,2,5.1,5.8v11.9h-4.8v-10.2
		c0-1.5-0.6-2.5-2.4-2.5c-1.2,0.1-2.3,0.5-3.2,1.3v11.6h-4.8V125.1z"/>
	<path class="st0" d="M242.5,101.9h9c7.3,0,10.5,4.7,10.5,11.6c0,6.9-3.2,11.6-10.5,11.6h-9V101.9z M256.7,113.5
		c0-5-1.7-7.3-5.3-7.3H248v14.6h3.6C254.9,120.8,256.7,118.5,256.7,113.5z"/>
	<path class="st0" d="M275.5,121.6c1.5,0,3-0.3,4.5-0.8l1.2,3.2c-2.1,0.9-4.3,1.4-6.5,1.3c-4.6,0.5-8.8-2.8-9.3-7.4
		c-0.1-0.6-0.1-1.3,0-1.9c-0.6-4.5,2.6-8.7,7.2-9.2c0.4,0,0.7-0.1,1.1-0.1c5.1,0,8,4.1,7,10.3h-10.2
		C270.5,119.7,271.8,121.6,275.5,121.6z M273.4,110c-1.9,0-3.1,1.7-3.1,4.1h6.1c0-2.4-1-3.9-3-3.9V110z"/>
	<path class="st0" d="M285.1,125.1v-23.1h4.8v23.1H285.1z"/>
	<path class="st0" d="M293.6,104.3c0-1.3,1.1-2.4,2.4-2.4c1.3,0,2.4,1.1,2.4,2.4c0,1.3-1.1,2.4-2.4,2.4
		C294.7,106.7,293.6,105.6,293.6,104.3C293.6,104.3,293.6,104.3,293.6,104.3z M298.5,125.1h-4.8v-16.4h4.8V125.1z"/>
	<path class="st0" d="M302.2,107.8h5.4l2.3,7.3l1.2,5.4l0,0l1.3-5.4l2.4-7.3h5.2l-5.8,17.4h-5.8L302.2,107.8z"/>
	<path class="st0" d="M332.7,121.6c1.5,0,3-0.3,4.4-0.8l1.2,3.2c-2.1,0.9-4.3,1.4-6.5,1.3c-4.6,0.5-8.7-2.9-9.2-7.5
		c-0.1-0.6-0.1-1.2,0-1.8c-0.6-4.5,2.5-8.6,7-9.2c0.4-0.1,0.8-0.1,1.2-0.1c5.1,0,8,4.1,7,10.3h-10.3c0,2.5,2,4.5,4.5,4.6
		C332.2,121.6,332.4,121.6,332.7,121.6z M330.8,110c-1.9,0-3.1,1.7-3.2,4.1h6.1c-0.1-2.4-1.2-3.9-3-3.9V110z"/>
	<path class="st0" d="M342,125.1v-17.4h4.8v3.4l0,0c1.1-2.2,3.4-3.5,5.8-3.2v3.7c-2.4-0.3-4.7,1-5.8,3.2v10.2H342V125.1z"/>
	<path class="st0" d="M371.5,108l-8,23.1h-4.6l1.6-4.7l-6.7-18.6h5.4l3.5,12.4l0,0l3.6-12.7h5.1L371.5,108z"/>
</g>
</svg>
