<?xml version="1.0" encoding="utf-8"?>
<!-- Generator: Adobe Illustrator 27.2.0, SVG Export Plug-In . SVG Version: 6.00 Build 0)  -->
<svg version="1.1" id="Layer_1" xmlns="http://www.w3.org/2000/svg" xmlns:xlink="http://www.w3.org/1999/xlink" x="0px" y="0px"
	 viewBox="0 0 479 282.5" style="enable-background:new 0 0 479 282.5;" xml:space="preserve">
<style type="text/css">
	.st0{clip-path:url(#SVGID_00000156547192316231504210000007250222287175474872_);fill:#76AA29;}
	.st1{clip-path:url(#SVGID_00000163041538335585054900000016983047182643859080_);fill:#2889CE;}
	.st2{clip-path:url(#SVGID_00000116948147693341025470000016843199649481739700_);fill:#1D1F22;}
	.st3{clip-path:url(#SVGID_00000087396056163483943700000006591212563042613674_);fill:#1D1F22;}
	.st4{clip-path:url(#SVGID_00000026159864986689689130000004310021857299340477_);fill:#1D1F22;}
	.st5{clip-path:url(#SVGID_00000170993214374662364800000013550538588417873331_);fill:#1D1F22;}
	.st6{clip-path:url(#SVGID_00000110429128698220388000000011176733512377333162_);fill:#1D1F22;}
	.st7{clip-path:url(#SVGID_00000009563365779773476560000007915303288751541919_);fill:#1D1F22;}
</style>
<g>
	<g>
		<g>
			<g>
				<defs>
					<rect id="SVGID_1_" x="52.5" y="78.8" width="374" height="125"/>
				</defs>
				<clipPath id="SVGID_00000145737450934952835010000001285835946459884724_">
					<use xlink:href="#SVGID_1_"  style="overflow:visible;"/>
				</clipPath>
				
					<rect x="52.5" y="150.8" style="clip-path:url(#SVGID_00000145737450934952835010000001285835946459884724_);fill:#76AA29;" width="158.3" height="52.7"/>
			</g>
		</g>
	</g>
	<g>
		<g>
			<g>
				<defs>
					<rect id="SVGID_00000176743008699867487920000008732451435205704610_" x="52.5" y="78.8" width="374" height="125"/>
				</defs>
				<clipPath id="SVGID_00000003799105560264240500000011896186307541091219_">
					<use xlink:href="#SVGID_00000176743008699867487920000008732451435205704610_"  style="overflow:visible;"/>
				</clipPath>
				
					<rect x="52.5" y="78.8" style="clip-path:url(#SVGID_00000003799105560264240500000011896186307541091219_);fill:#2889CE;" width="158.3" height="52.8"/>
			</g>
		</g>
	</g>
	<g>
		<g>
			<g>
				<defs>
					<rect id="SVGID_00000183220946359656159630000010169793862328251536_" x="52.5" y="78.8" width="374" height="125"/>
				</defs>
				<clipPath id="SVGID_00000089557985708302767160000010021210849911553196_">
					<use xlink:href="#SVGID_00000183220946359656159630000010169793862328251536_"  style="overflow:visible;"/>
				</clipPath>
				<path style="clip-path:url(#SVGID_00000089557985708302767160000010021210849911553196_);fill:#1D1F22;" d="M370.3,143.1
					l-1.3,0.2v18.4l-1.1-0.3l-0.3-0.1c-1.3-0.4-4.2-1.2-7-1.2c-15.4,0-18.7,11.7-18.7,21.4c0,13.4,7.5,21.1,20.6,21.1
					c5.5,0,9.6-0.6,13.8-1.9c3.8-1.2,5.2-3,5.2-6.7v-52.9C377.8,141.9,374,142.4,370.3,143.1 M369,192.8l-0.7,0.1
					c-2.4,0.5-3.3,0.7-5.1,0.7c-4.1,0-9-2.1-9-12.1c0-5.1,0.8-11.9,8.6-11.9l0,0c1.3,0.1,2.8,0.2,5.6,1.1l0.6,0.2V192.8z"/>
			</g>
		</g>
	</g>
	<g>
		<g>
			<g>
				<defs>
					<rect id="SVGID_00000124138579013965503460000014253879915088428712_" x="52.5" y="78.8" width="374" height="125"/>
				</defs>
				<clipPath id="SVGID_00000126285655063490502640000002507883622824351161_">
					<use xlink:href="#SVGID_00000124138579013965503460000014253879915088428712_"  style="overflow:visible;"/>
				</clipPath>
				<path style="clip-path:url(#SVGID_00000126285655063490502640000002507883622824351161_);fill:#1D1F22;" d="M409.4,159.9
					c-4.7,0-9.6,0.8-15.7,2.7l-3.9,1.2l1.3,8.9l3.9-1.3c4-1.3,9.1-2.2,12.8-2.2c1.7,0,6.9,0,6.9,5.6v2.4h-7.2
					c-13.1,0-19.2,4.2-19.2,13.2c0,7.7,5.6,12.3,15,12.3c2.9,0,7-0.6,10.4-1.4h0.2h0.2l1.2,0.2c3.7,0.7,7.5,1.3,11.2,2v-29.3
					C426.4,164.7,420.7,159.9,409.4,159.9 M414.8,193.1l-0.7,0.2l-2.3,0.6c-2.2,0.6-4.2,0.9-5.7,0.9c-3.6,0-5.8-1.8-5.8-4.8
					c0-2,0.9-5.3,6.8-5.3h7.7V193.1z"/>
			</g>
		</g>
	</g>
	<g>
		<g>
			<g>
				<defs>
					<rect id="SVGID_00000021104885599920174190000003446834802733178039_" x="52.5" y="78.8" width="374" height="125"/>
				</defs>
				<clipPath id="SVGID_00000152225731399713560610000014815197835306198152_">
					<use xlink:href="#SVGID_00000021104885599920174190000003446834802733178039_"  style="overflow:visible;"/>
				</clipPath>
				<path style="clip-path:url(#SVGID_00000152225731399713560610000014815197835306198152_);fill:#1D1F22;" d="M318.2,159.9
					c-4.8,0-9.6,0.8-15.7,2.7l-3.9,1.2l1.3,8.9l3.9-1.3c4-1.3,9.1-2.2,12.8-2.2c1.7,0,6.9,0,6.9,5.6v2.4h-7.2
					c-13.1,0-19.2,4.2-19.2,13.2c0,7.7,5.6,12.3,15,12.3c2.9,0,7-0.6,10.4-1.4h0.2h0.2l1.1,0.2c3.7,0.7,7.5,1.3,11.2,2.1v-29.3
					C335.2,164.7,329.4,159.9,318.2,159.9 M323.5,193.1l-0.7,0.2l-2.3,0.6c-2.2,0.6-4.1,0.9-5.7,0.9c-3.6,0-5.8-1.8-5.8-4.8
					c0-2,0.9-5.3,6.8-5.3h7.7V193.1z"/>
			</g>
		</g>
	</g>
	<g>
		<g>
			<g>
				<defs>
					<rect id="SVGID_00000010277882784578869170000003303566866948736683_" x="52.5" y="78.8" width="374" height="125"/>
				</defs>
				<clipPath id="SVGID_00000127752220129644701960000003838893188902772138_">
					<use xlink:href="#SVGID_00000010277882784578869170000003303566866948736683_"  style="overflow:visible;"/>
				</clipPath>
				<path style="clip-path:url(#SVGID_00000127752220129644701960000003838893188902772138_);fill:#1D1F22;" d="M274,159.9
					c-6,0-10.9,2-12.7,2.8l-0.5,0.2l-0.4-0.3c-2.5-1.8-6.2-2.8-11.4-2.8c-4.6,0-8.8,0.7-13.5,2c-4,1.2-5.5,3.1-5.5,6.8v33.5h12.5
					v-31l0.6-0.2c2.5-0.8,4-1,5.5-1c3.6,0,5.5,1.9,5.5,5.7v26.5h12.3v-27c0-1.6-0.3-2.5-0.4-2.7l-0.4-0.8l0.8-0.4
					c1.9-0.8,3.9-1.3,6.1-1.3c2.5,0,5.5,1,5.5,5.7v26.5h12.3v-27.7C290.2,164.7,284.9,159.9,274,159.9"/>
			</g>
		</g>
	</g>
	<g>
		<g>
			<g>
				<defs>
					<rect id="SVGID_00000036221851871129336550000014749776863202874248_" x="52.5" y="78.8" width="374" height="125"/>
				</defs>
				<clipPath id="SVGID_00000170990959254575585600000006689691691376012674_">
					<use xlink:href="#SVGID_00000036221851871129336550000014749776863202874248_"  style="overflow:visible;"/>
				</clipPath>
				<path style="clip-path:url(#SVGID_00000170990959254575585600000006689691691376012674_);fill:#1D1F22;" d="M405.6,78.8
					c-0.1,0-0.2,0-0.3,0c-7.2,0-14.6,2-17.2,5.8c-1.4,1.9-2.2,4.2-2.3,7v18.7c0,1.6-0.3,2.2-0.4,2.3l-0.4,0.8h-22.7v-13l0,0
					c-0.3-13.7-8.4-21.2-20.1-21.2h-1.4h-10.1c-0.5,3.3-0.8,5.7-1.3,9h11.4c6,0,9.1,5.1,9.1,12.9v13.1l-0.8-0.4
					c-0.1,0-1.1-0.4-2.7-0.4h-19.6c-0.4,2.5-0.8,5.7-1.4,9h60.4c2.1-0.4,4.5-0.8,6.5-1.1c3.1,1.5,8.7,2.3,12.6,2.3
					c13.1,0,21.6-8.8,21.6-22.3C426.6,87.9,418.3,79.1,405.6,78.8 M405.6,113.2c-1.8,0-4.9-0.2-7.3-0.7l-0.7-0.1v-18
					c0-1.5-0.3-2.4-0.3-2.6l-0.4-0.8l0.8-0.3c0.2-0.1,0.4-0.1,0.6-0.2l0.1-0.1c0.3-0.1,0.6-0.2,0.8-0.3c0.1,0,0.2-0.1,0.3-0.1
					c2.8-0.8,5.3-0.7,6.4-0.8l0,0c7.7,0,8.6,6.8,8.6,11.9C414.6,111.1,409.7,113.2,405.6,113.2"/>
			</g>
		</g>
	</g>
	<g>
		<g>
			<g>
				<defs>
					<rect id="SVGID_00000156551346144811225290000009474883210649713815_" x="52.5" y="78.8" width="374" height="125"/>
				</defs>
				<clipPath id="SVGID_00000020363981776696006200000014071027051493073072_">
					<use xlink:href="#SVGID_00000156551346144811225290000009474883210649713815_"  style="overflow:visible;"/>
				</clipPath>
				<path style="clip-path:url(#SVGID_00000020363981776696006200000014071027051493073072_);fill:#1D1F22;" d="M299.7,128h0.6
					c13.1,0,19.2-4.3,19.2-15c0-7.7-5.6-13.8-15-13.8h-12.1c-3.6,0-5.8-2.1-5.8-5.5c0-2.3,0.9-5.3,6.8-5.3h26.4
					c0.6-3.4,0.8-5.6,1.4-9h-27.4c-12.8,0-19.2,5.4-19.2,14.3c0,8.8,5.6,13.4,15,13.4h12.1c3.6,0,5.8,2.9,5.8,5.9
					c0,2-0.9,6.1-6.8,6.1h-2L260,119h-7c-6,0-10.1-3.4-10.1-11.2v-5.4c0-8.2,3.2-13.3,10.1-13.3h11.5c0.5-3.5,0.8-5.7,1.3-9h-14.3
					H250c-11.7,0-19.8,7.8-20.1,21.5v0.5v5.6c0.3,13.7,8.4,20.2,20.1,20.2h1.4h10.1h21H295L299.7,128L299.7,128z"/>
			</g>
		</g>
	</g>
</g>
</svg>
