<?xml version="1.0" encoding="utf-8"?>
<!-- Generator: Adobe Illustrator 27.2.0, SVG Export Plug-In . SVG Version: 6.00 Build 0)  -->
<svg version="1.1" id="Layer_1" xmlns="http://www.w3.org/2000/svg" xmlns:xlink="http://www.w3.org/1999/xlink" x="0px" y="0px"
	 viewBox="0 0 479 282.5" style="enable-background:new 0 0 479 282.5;" xml:space="preserve">
<style type="text/css">
	.st0{fill:#FF5F00;}
	.st1{fill:#EB001B;}
	.st2{fill:#F79E1B;}
</style>
<g>
	<g>
		<rect x="198.2" y="67.2" class="st0" width="82.4" height="148.1"/>
		<path class="st1" d="M203.4,141.2c0-28.9,13.2-56.2,36-74c-40.9-32.1-100.1-25-132.2,15.8C75,123.9,82.1,183.1,123,215.3
			c34.2,26.8,82.2,26.8,116.4,0C216.7,197.4,203.4,170.1,203.4,141.2z"/>
		<path class="st2" d="M391.7,141.2c0,52-42.2,94.2-94.2,94.2c-21.1,0-41.6-7.1-58.2-20.1c40.9-32.2,48-91.4,15.8-132.2
			c-4.6-5.9-9.9-11.2-15.8-15.8c40.9-32.1,100.1-25,132.2,15.8C384.7,99.6,391.7,120.1,391.7,141.2z"/>
		<path class="st2" d="M382.8,199.6v-3h1.2V196h-3.1v0.6h1.2v3H382.8z M388.8,199.6v-3.7h-1l-1.1,2.5l-1.1-2.5h-1v3.7h0.7v-2.8
			l1,2.4h0.7l1-2.4v2.8H388.8z"/>
	</g>
</g>
</svg>
