<?xml version="1.0" encoding="utf-8"?>
<!-- Generator: Adobe Illustrator 27.2.0, SVG Export Plug-In . SVG Version: 6.00 Build 0)  -->
<svg version="1.1" id="Layer_1" xmlns="http://www.w3.org/2000/svg" xmlns:xlink="http://www.w3.org/1999/xlink" x="0px" y="0px"
	 viewBox="0 0 479 282.5" style="enable-background:new 0 0 479 282.5;" xml:space="preserve">
<style type="text/css">
	.st0{fill:#5AFEAE;}
	.st1{fill:#292929;}
</style>
<g id="Page-1">
	<g id="Login-Screen" transform="translate(-137.000000, -94.000000)">
	</g>
</g>
<g>
	<path class="st0" d="M370.8,214.1H108.3c-25.1,0-45.4-20.3-45.4-45.4v-54.9c0-25.1,20.3-45.4,45.4-45.4h262.5
		c25.1,0,45.4,20.3,45.4,45.4v54.7C416.2,193.6,396,214,370.8,214.1C370.9,214.1,370.9,214.1,370.8,214.1z"/>
	<path class="st1" d="M352.7,115.1l-18.1,69.1l0,0h14.2l18.1-69.1H352.7L352.7,115.1z M129.1,154.3c-2.1,1-4.4,1.6-6.8,1.5
		c-5.1,0-7.9-0.9-8.3-5v-22.4l0,0v-13l-12.7,1.6c7.5-1.1,13.1-7.5,13.3-15v-4.3h-14.2V117h-0.9v35.8c0,8.9,7.2,16.2,16.1,16.2
		c0.6,0,1.2,0,1.7-0.1c3.9,0,7.8-0.8,11.3-2.4l0,0V154L129.1,154.3z"/>
	<path class="st1" d="M131.3,112.5l-39.7,6.1v9.9l39.7-6.1V112.5z M131.3,127.3l-39.7,6.1v9.6l39.7-6.1V127.3z M175.7,131.9
		c0.2-9.7-7.6-17.8-17.4-17.9c-0.5,0-1.1,0-1.6,0c-6.1-0.2-12,2.6-15.7,7.4c-7.6,12.5-7.6,28.1,0,40.6c3.8,4.8,9.6,7.4,15.7,7.2
		c9.6,0.8,18.1-6.3,18.9-15.9c0.1-0.7,0.1-1.3,0.1-2v17h14.1v-52.8l-14.1,2.2V132V131.9z M176.4,141.7c0,9.8-5.2,16.3-13.3,16.3
		s-13.3-6.1-13.3-16.3c0-10.3,5.1-16.3,13.3-16.3c3.8-0.1,7.4,1.6,9.8,4.6C175.3,133.4,176.5,137.5,176.4,141.7z M230.9,114
		c-9.6-0.8-18.1,6.3-19,16c-0.1,0.6-0.1,1.3-0.1,1.9v-31.7l-14.1,2.2v65.9h14.1v-17c-0.3,9.6,7.4,17.7,17,17.9c0.7,0,1.3,0,2-0.1
		c13.3,0,21.3-10.2,21.3-27.5S244.3,114,230.9,114L230.9,114L230.9,114z M224.5,158c-8.1,0-13.3-6.3-13.3-16.3
		c-0.1-4.2,1.1-8.3,3.5-11.7c2.3-3,6-4.7,9.8-4.6c8.3,0,13.3,6.1,13.3,16.3S232.8,158,224.5,158z M290.6,114
		c-9.6-0.9-18,6.2-18.9,15.8c-0.1,0.7-0.1,1.4-0.1,2.1v-31.7l-14.2,2.2v65.9h14.2v-17c-0.3,9.6,7.3,17.6,16.9,17.9
		c0.7,0,1.4,0,2.1-0.1c13.3,0,21.4-10.2,21.4-27.5S303.9,113.9,290.6,114L290.6,114z M284.3,158c-8.1,0-13.3-6.3-13.3-16.3
		c-0.1-4.2,1.1-8.3,3.5-11.7c2.3-3,6-4.7,9.8-4.6c8.3,0,13.3,6.1,13.3,16.3S292.6,158,284.3,158z M312,115.1h15l12.4,53.1H326
		L312,115.1z M378.2,120.8v-4.1h-1.7v-0.9h4.5v0.9h-1.7v4.1H378.2z M381.3,120.8v-5.3h1.8l0.9,2.4c0,0.6,0.5,0.9,0.5,1.1
		s0-0.5,0.5-1.1l0.9-2.4h1.8v5.3h-1.1v-4.1l-1.5,4.1H384l-1.3-4.1v4.1H381.3z"/>
</g>
</svg>
