<?xml version="1.0" encoding="utf-8"?>
<!-- Generator: Adobe Illustrator 27.2.0, SVG Export Plug-In . SVG Version: 6.00 Build 0)  -->
<svg version="1.1" id="Layer_1" xmlns="http://www.w3.org/2000/svg" xmlns:xlink="http://www.w3.org/1999/xlink" x="0px" y="0px"
	 viewBox="0 0 479 282.5" style="enable-background:new 0 0 479 282.5;" xml:space="preserve">
<style type="text/css">
	.st0{clip-path:url(#SVGID_00000060742367013606162850000007922339282214074022_);}
</style>
<g id="Page-1">
	<g id="Login-Screen" transform="translate(-137.000000, -94.000000)">
	</g>
</g>
<g>
	<g>
		<g>
			<defs>
				<rect id="SVGID_1_" x="52.8" y="90.2" width="246.6" height="102"/>
			</defs>
			<clipPath id="SVGID_00000034087996574208886700000006040121135277329086_">
				<use xlink:href="#SVGID_1_"  style="overflow:visible;"/>
			</clipPath>
			<g style="clip-path:url(#SVGID_00000034087996574208886700000006040121135277329086_);">
				<path d="M78.6,130.9c-1.1,0.2-2.1,0.8-2.7,1.8c-1.4,2.8-2.5,5.8-3.9,8.5c-0.7,1.2-0.4,2.7,0.7,3.5c2.9,3.1,5.7,6.4,8.1,9.9
					c2.9,3.8,2.4,9.1-1.2,12.3c-2.7,2.7-5.8,5-9.3,6.8c-5,2.4-10.3,3.9-15.5,5.8c-0.7,0-1.8,1.2-1.9,1.8c-0.4,1.2,0.3,2.4,1.4,2.8
					l0,0c5.8,2.6,12,5,18.2,7.6c2-3.1,4-5.8,5.8-8.9c10.1-14.9,11.2-34.1,2.9-50.1C80.7,131.7,79.7,131,78.6,130.9z M291.5,109.9
					L291.5,109.9c-2.9-2.9-7.5-2.8-10.4,0c-0.7,0.7-1.2,1.5-1.6,2.4c-1.2,2.7-0.5,5.9,1.6,8l0,0c2.8,2.9,7.3,3,10.2,0.2
					c0.1-0.1,0.1-0.1,0.2-0.2c2.1-2.1,2.7-5.3,1.6-8C292.7,111.4,292.2,110.6,291.5,109.9z M261,109.9c-0.7,0.7-1.3,1.6-1.7,2.5
					l11.1,9.6c0.6-0.3,1.1-0.7,1.6-1.2l0,0c3-3.1,3-8-0.1-11c-2.2-2.1-5.5-2.8-8.3-1.7C262.6,108.6,261.7,109.2,261,109.9z
					 M95.9,105c0,0-2.7,5.8-4,8.6c-0.5,1.2-0.8,2.5-0.8,3.9c0.5,10.2,0.9,20.3,1.6,30.5c0.2,9.9,6.2,18.7,15.4,22.5
					c6.6,2.9,13.7,4.6,21,4.9c9.1,0.5,18.2,0.8,27.4,0.9c15.1,0.3,30.2-1.1,45.1-3.9c7.3-1.3,14.5-3.2,21.4-5.8
					c2.8-1.5,2.6-1.2,5.4-0.4c10,1.7,20.1,1.7,30.1,0c3.5-1,6.6-1.8,7.4-4.3c3.2,5.1,5,7.6,10.5,7.1c3.9-0.3,7.8-0.9,11.5-2
					c4.4-0.8,7.9-4,9.2-8.3c0.5-1.9,0.8-3.8,1-5.8c1-7-0.5-14.2-4.4-20.1c-0.6-1.4-2-2.1-3.5-1.8c-0.7,0-1.8,1.2-2.3,2
					c-1.4,2.7-2.4,5.8-3.8,8.3c-0.8,1.2-0.4,2.9,0.8,3.7c2.8,2.6,5.4,5.2,8,7.9c-5.8,0.6-8.1,1.3-13.3,1.7c-5.2,0.4-14.7,0-17.3-4.4
					c-1.4-3.2-3.6-6-6.4-8.1c-6.5-3.9-14.5-3.9-21,0c-3.6,1.7-6.3,5-7.2,8.8c0,1.7-1.1,3.2-2.8,3.6c-30.5,8-62.1,10.7-93.5,7.9
					c-7.5-0.6-14.8-2.2-21.8-4.8c-5.8-1.9-9.5-7.5-9-13.6c0-12.5,0-25.1,0-37.6c0.1-1.3-0.9-2.5-2.2-2.6l0,0c-1,0-2.3,2.3-2.3,2.3
					L95.9,105z M256.2,156.9h-24.3c1.1-5.6,5.9-9.7,11.5-10c14.2-0.5,12.6,10.3,12.6,10.3L256.2,156.9z"/>
				<path d="M62.8,106.4c0.1-1.3-0.8-2.5-2.2-2.7l0,0l0,0c-1,0-2.3,2.3-2.3,2.3s-2.8,5.8-4,8.7c-0.5,1.2-0.8,2.5-0.8,3.9
					c0,5,0.4,10,0.6,15l1,21.3c0.2,4.4,0.5,8.7,0.7,13.2h4c1.4-4.8,2.3-9.8,2.8-14.8C62.8,146.5,62.8,115.4,62.8,106.4L62.8,106.4z"
					/>
			</g>
		</g>
	</g>
	<path d="M419.3,131.6l-0.7-0.7c-9.2-9.1-24-9.1-33.2,0.1c-9.1,9.2-9.1,24,0.1,33.2l0.7,0.6c8.9,9.1,23.5,9.3,32.7,0.4
		c0.1-0.1,0.3-0.3,0.4-0.4c6.7-6.7,8.7-16.8,5.1-25.6C423.2,136.4,421.5,133.8,419.3,131.6z"/>
	<path d="M322,132.5c-2.3,2.3-4.2,5.1-5.4,8.1l35.5,30.9c1.8-1.1,3.5-2.3,5-3.8l0.8-0.8c9.7-9.4,10-24.8,0.6-34.5
		c-0.2-0.2-0.4-0.4-0.6-0.6c-9.7-9.7-25.4-9.7-35.1,0L322,132.5z"/>
</g>
</svg>
