<?xml version="1.0" encoding="utf-8"?>
<!-- Generator: Adobe Illustrator 27.2.0, SVG Export Plug-In . SVG Version: 6.00 Build 0)  -->
<svg version="1.1" id="Layer_1" xmlns="http://www.w3.org/2000/svg" xmlns:xlink="http://www.w3.org/1999/xlink" x="0px" y="0px"
	 viewBox="0 0 479 282.5" style="enable-background:new 0 0 479 282.5;" xml:space="preserve">
<style type="text/css">
	.st0{fill:#1434CB;}
</style>
<path class="st0" d="M191.1,78.8l-52.6,125.6h-34.3L78.3,104.1c-1.6-6.2-2.9-8.4-7.8-11c-7.8-4.2-20.7-8.2-32-10.6l0.7-3.7h55.3
	c7.1,0,13.3,4.7,14.9,12.8l13.6,72.7l33.8-85.5H191.1L191.1,78.8z M325.6,163.3c0.1-33.1-45.9-35-45.5-49.8
	c0.1-4.5,4.4-9.3,13.7-10.5c4.7-0.6,17.5-1.1,32,5.6l5.7-26.7c-7.8-2.8-18-5.6-30.3-5.6c-32.2,0-54.7,17.1-54.8,41.5
	c-0.2,18.1,16.1,28.2,28.5,34.1c12.7,6.1,17,10.2,16.9,15.7c-0.1,8.3-10.2,12.2-19.5,12.3c-16.4,0.2-25.8-4.4-33.4-7.8l-5.9,27.5
	c7.7,3.4,21.6,6.6,36.1,6.7C303.1,206.4,325.5,189.5,325.6,163.3 M410.5,204.3h30L414.3,78.8h-27.8c-6.2,0-11.5,3.6-13.8,9.2
	l-48.8,116.4h34l6.8-18.7h41.7L410.5,204.3z M374.2,159.9l17.1-47.2l9.8,47.2H374.2z M237.6,78.8l-26.9,125.6h-32.6L205,78.8H237.6
	L237.6,78.8z"/>
</svg>
